<mxfile host="Electron" agent="Mozilla/5.0 (Windows NT 10.0; Win64; x64) AppleWebKit/537.36 (KHTML, like Gecko) draw.io/24.7.17 Chrome/128.0.6613.36 Electron/32.0.1 Safari/537.36" version="24.7.17">
  <diagram name="Page-1" id="JihokUzWA00pLfLb88uX">
    <mxGraphModel dx="1728" dy="1012" grid="1" gridSize="10" guides="1" tooltips="1" connect="1" arrows="1" fold="1" page="1" pageScale="1" pageWidth="850" pageHeight="1100" math="0" shadow="0">
      <root>
        <mxCell id="0" />
        <mxCell id="1" parent="0" />
        <mxCell id="P7ek7C8qethuc9K7CDCC-5" style="edgeStyle=orthogonalEdgeStyle;rounded=0;orthogonalLoop=1;jettySize=auto;html=1;exitX=0;exitY=0.5;exitDx=0;exitDy=0;entryX=0;entryY=0.5;entryDx=0;entryDy=0;" parent="1" target="P7ek7C8qethuc9K7CDCC-2" edge="1">
          <mxGeometry relative="1" as="geometry">
            <mxPoint x="130" y="350" as="sourcePoint" />
          </mxGeometry>
        </mxCell>
        <mxCell id="P7ek7C8qethuc9K7CDCC-6" value="USB" style="edgeLabel;html=1;align=center;verticalAlign=middle;resizable=0;points=[];" parent="P7ek7C8qethuc9K7CDCC-5" vertex="1" connectable="0">
          <mxGeometry x="-0.4055" y="3" relative="1" as="geometry">
            <mxPoint x="9" y="-7" as="offset" />
          </mxGeometry>
        </mxCell>
        <mxCell id="IfeEQyE8Qve-Erkvmb9d-2" style="edgeStyle=orthogonalEdgeStyle;rounded=0;orthogonalLoop=1;jettySize=auto;html=1;exitX=1;exitY=0.5;exitDx=0;exitDy=0;entryX=0;entryY=0.5;entryDx=0;entryDy=0;" edge="1" parent="1" source="P7ek7C8qethuc9K7CDCC-2" target="IfeEQyE8Qve-Erkvmb9d-1">
          <mxGeometry relative="1" as="geometry" />
        </mxCell>
        <mxCell id="IfeEQyE8Qve-Erkvmb9d-3" value="5-20 V&lt;div&gt;0.5-5 A&lt;/div&gt;" style="edgeLabel;html=1;align=center;verticalAlign=middle;resizable=0;points=[];" vertex="1" connectable="0" parent="IfeEQyE8Qve-Erkvmb9d-2">
          <mxGeometry x="-0.0172" y="1" relative="1" as="geometry">
            <mxPoint as="offset" />
          </mxGeometry>
        </mxCell>
        <mxCell id="P7ek7C8qethuc9K7CDCC-2" value="USB-C PD Controller (STUSB4500)" style="swimlane;whiteSpace=wrap;html=1;" parent="1" vertex="1">
          <mxGeometry x="220" y="300" width="230" height="100" as="geometry" />
        </mxCell>
        <mxCell id="IfeEQyE8Qve-Erkvmb9d-11" style="edgeStyle=orthogonalEdgeStyle;rounded=0;orthogonalLoop=1;jettySize=auto;html=1;exitX=1;exitY=0.5;exitDx=0;exitDy=0;entryX=0;entryY=0.5;entryDx=0;entryDy=0;" edge="1" parent="1" source="IfeEQyE8Qve-Erkvmb9d-1" target="IfeEQyE8Qve-Erkvmb9d-9">
          <mxGeometry relative="1" as="geometry" />
        </mxCell>
        <mxCell id="IfeEQyE8Qve-Erkvmb9d-13" value="3.3-20 V" style="edgeLabel;html=1;align=center;verticalAlign=middle;resizable=0;points=[];" vertex="1" connectable="0" parent="IfeEQyE8Qve-Erkvmb9d-11">
          <mxGeometry x="-0.6897" y="-4" relative="1" as="geometry">
            <mxPoint x="10" y="-14" as="offset" />
          </mxGeometry>
        </mxCell>
        <mxCell id="IfeEQyE8Qve-Erkvmb9d-25" style="edgeStyle=orthogonalEdgeStyle;rounded=0;orthogonalLoop=1;jettySize=auto;html=1;entryX=0;entryY=0.5;entryDx=0;entryDy=0;" edge="1" parent="1" source="IfeEQyE8Qve-Erkvmb9d-1" target="IfeEQyE8Qve-Erkvmb9d-18">
          <mxGeometry relative="1" as="geometry" />
        </mxCell>
        <mxCell id="IfeEQyE8Qve-Erkvmb9d-1" value="Charger (MP2759)" style="swimlane;whiteSpace=wrap;html=1;" vertex="1" parent="1">
          <mxGeometry x="520" y="300" width="140" height="100" as="geometry" />
        </mxCell>
        <mxCell id="IfeEQyE8Qve-Erkvmb9d-4" value="1 cell liion battery&lt;div&gt;(3.3-4.2 V)&lt;/div&gt;" style="rounded=1;whiteSpace=wrap;html=1;" vertex="1" parent="1">
          <mxGeometry x="530" y="130" width="120" height="60" as="geometry" />
        </mxCell>
        <mxCell id="IfeEQyE8Qve-Erkvmb9d-5" value="Battery Protection (TBD)" style="swimlane;whiteSpace=wrap;html=1;" vertex="1" parent="1">
          <mxGeometry x="502.5" y="220" width="175" height="50" as="geometry" />
        </mxCell>
        <mxCell id="IfeEQyE8Qve-Erkvmb9d-7" value="" style="endArrow=classic;startArrow=classic;html=1;rounded=0;entryX=0.5;entryY=1;entryDx=0;entryDy=0;exitX=0.5;exitY=0;exitDx=0;exitDy=0;" edge="1" parent="1" source="IfeEQyE8Qve-Erkvmb9d-1" target="IfeEQyE8Qve-Erkvmb9d-5">
          <mxGeometry width="50" height="50" relative="1" as="geometry">
            <mxPoint x="580" y="530" as="sourcePoint" />
            <mxPoint x="630" y="480" as="targetPoint" />
          </mxGeometry>
        </mxCell>
        <mxCell id="IfeEQyE8Qve-Erkvmb9d-8" value="" style="endArrow=classic;startArrow=classic;html=1;rounded=0;entryX=0.5;entryY=1;entryDx=0;entryDy=0;exitX=0.5;exitY=0;exitDx=0;exitDy=0;" edge="1" parent="1" source="IfeEQyE8Qve-Erkvmb9d-5" target="IfeEQyE8Qve-Erkvmb9d-4">
          <mxGeometry width="50" height="50" relative="1" as="geometry">
            <mxPoint x="740" y="260" as="sourcePoint" />
            <mxPoint x="740" y="230" as="targetPoint" />
          </mxGeometry>
        </mxCell>
        <mxCell id="IfeEQyE8Qve-Erkvmb9d-14" style="edgeStyle=orthogonalEdgeStyle;rounded=0;orthogonalLoop=1;jettySize=auto;html=1;exitX=1;exitY=0.5;exitDx=0;exitDy=0;entryX=0;entryY=0.5;entryDx=0;entryDy=0;" edge="1" parent="1" source="IfeEQyE8Qve-Erkvmb9d-9" target="IfeEQyE8Qve-Erkvmb9d-10">
          <mxGeometry relative="1" as="geometry" />
        </mxCell>
        <mxCell id="IfeEQyE8Qve-Erkvmb9d-15" value="15 V" style="edgeLabel;html=1;align=center;verticalAlign=middle;resizable=0;points=[];" vertex="1" connectable="0" parent="IfeEQyE8Qve-Erkvmb9d-14">
          <mxGeometry x="-0.1556" y="1" relative="1" as="geometry">
            <mxPoint as="offset" />
          </mxGeometry>
        </mxCell>
        <mxCell id="IfeEQyE8Qve-Erkvmb9d-9" value="Flyback Converter" style="swimlane;whiteSpace=wrap;html=1;" vertex="1" parent="1">
          <mxGeometry x="850" y="270" width="140" height="60" as="geometry" />
        </mxCell>
        <mxCell id="IfeEQyE8Qve-Erkvmb9d-16" style="edgeStyle=orthogonalEdgeStyle;rounded=0;orthogonalLoop=1;jettySize=auto;html=1;exitX=1;exitY=0.5;exitDx=0;exitDy=0;" edge="1" parent="1" source="IfeEQyE8Qve-Erkvmb9d-10">
          <mxGeometry relative="1" as="geometry">
            <mxPoint x="1310" y="300" as="targetPoint" />
          </mxGeometry>
        </mxCell>
        <mxCell id="IfeEQyE8Qve-Erkvmb9d-17" value="15 V" style="edgeLabel;html=1;align=center;verticalAlign=middle;resizable=0;points=[];" vertex="1" connectable="0" parent="IfeEQyE8Qve-Erkvmb9d-16">
          <mxGeometry x="0.2079" relative="1" as="geometry">
            <mxPoint x="-11" as="offset" />
          </mxGeometry>
        </mxCell>
        <mxCell id="IfeEQyE8Qve-Erkvmb9d-10" value="Isolated Flyback Converter" style="swimlane;whiteSpace=wrap;html=1;" vertex="1" parent="1">
          <mxGeometry x="1060" y="270" width="190" height="60" as="geometry" />
        </mxCell>
        <mxCell id="IfeEQyE8Qve-Erkvmb9d-18" value="Buck/Boost Converter" style="swimlane;whiteSpace=wrap;html=1;" vertex="1" parent="1">
          <mxGeometry x="850" y="370" width="160" height="60" as="geometry" />
        </mxCell>
        <mxCell id="IfeEQyE8Qve-Erkvmb9d-23" style="edgeStyle=orthogonalEdgeStyle;rounded=0;orthogonalLoop=1;jettySize=auto;html=1;exitX=1;exitY=0.5;exitDx=0;exitDy=0;" edge="1" parent="1" source="IfeEQyE8Qve-Erkvmb9d-18">
          <mxGeometry relative="1" as="geometry">
            <mxPoint x="1070" y="400" as="targetPoint" />
            <mxPoint x="1050" y="420" as="sourcePoint" />
          </mxGeometry>
        </mxCell>
        <mxCell id="IfeEQyE8Qve-Erkvmb9d-24" value="5 V" style="edgeLabel;html=1;align=center;verticalAlign=middle;resizable=0;points=[];" vertex="1" connectable="0" parent="IfeEQyE8Qve-Erkvmb9d-23">
          <mxGeometry x="0.2079" relative="1" as="geometry">
            <mxPoint x="-11" as="offset" />
          </mxGeometry>
        </mxCell>
      </root>
    </mxGraphModel>
  </diagram>
</mxfile>
